<?xml version="1.0" encoding="UTF-8" ?>
<!DOCTYPE svg PUBLIC "-//W3C//DTD SVG 1.1//EN" "http://www.w3.org/Graphics/SVG/1.1/DTD/svg11.dtd">
<svg width="206pt" height="44pt" viewBox="0 0 206 44" version="1.1" xmlns="http://www.w3.org/2000/svg">
<g id="#ffffffff">
<path fill="#ffffff" opacity="1.00" d=" M 15.29 1.14 C 28.00 -3.47 43.06 6.45 43.85 19.93 C 45.39 31.95 35.12 43.84 22.96 43.88 C 11.64 44.77 0.92 35.28 0.21 23.99 C -0.91 14.07 5.76 4.05 15.29 1.14 M 4.04 18.00 C 2.80 23.37 4.24 29.07 7.41 33.51 C 7.16 31.04 6.38 28.23 8.18 26.12 C 11.31 21.79 17.20 21.71 21.92 20.51 C 25.45 19.87 27.73 15.53 25.80 12.36 C 23.55 8.21 16.60 8.70 14.93 13.13 C 13.62 15.51 15.31 17.86 16.64 19.76 C 15.59 20.00 13.48 20.49 12.43 20.74 C 11.82 19.10 11.29 17.45 10.78 15.78 C 10.12 17.72 9.76 19.73 9.92 21.78 C 8.52 23.05 7.19 24.38 5.88 25.73 C 5.85 22.77 5.58 19.70 6.55 16.84 C 8.92 8.78 18.49 3.82 26.46 6.38 C 33.15 8.30 38.79 14.80 38.25 21.98 C 37.85 26.91 33.66 30.67 29.05 31.81 C 23.08 33.68 17.02 31.41 11.18 30.21 C 10.82 30.36 10.10 30.66 9.73 30.82 C 10.59 36.99 17.31 40.40 23.04 40.25 C 32.55 40.30 40.70 31.39 40.45 22.00 C 40.68 12.89 33.08 4.46 24.01 3.70 C 14.96 2.49 5.85 9.10 4.04 18.00 M 11.73 27.42 C 16.08 28.34 23.36 29.83 24.59 23.83 C 20.31 24.64 14.76 23.58 11.73 27.42 Z" />
<path fill="#ffffff" opacity="1.00" d=" M 52.74 9.71 C 57.08 10.01 61.88 8.76 65.82 11.10 C 69.26 13.31 69.57 18.29 67.07 21.33 C 71.16 24.50 70.55 31.83 65.54 33.70 C 61.43 35.00 56.98 34.06 52.74 34.33 C 52.78 26.12 52.78 17.92 52.74 9.71 M 57.05 13.76 C 57.06 15.75 57.04 17.74 57.01 19.74 C 59.62 19.66 64.04 20.60 64.52 16.90 C 64.28 13.14 59.70 13.80 57.05 13.76 M 57.06 23.83 C 57.06 25.95 57.06 28.08 57.03 30.21 C 59.27 30.12 61.60 30.48 63.77 29.82 C 65.79 29.25 65.81 26.60 64.99 25.06 C 62.77 23.25 59.69 24.00 57.06 23.83 Z" />
<path fill="#ffffff" opacity="1.00" d=" M 72.50 9.86 C 73.95 9.86 75.40 9.86 76.85 9.86 C 77.00 15.86 76.42 21.92 77.14 27.88 C 78.33 30.83 82.02 29.70 84.46 29.99 C 84.48 31.40 84.50 32.80 84.51 34.21 C 80.10 34.66 74.30 33.89 72.90 28.88 C 72.01 22.61 72.77 16.19 72.50 9.86 Z" />
<path fill="#ffffff" opacity="1.00" d=" M 88.00 15.11 C 90.17 8.04 101.32 8.01 103.57 15.03 C 105.03 21.32 103.86 27.92 104.27 34.34 C 102.81 34.34 101.36 34.33 99.91 34.33 C 99.91 30.83 99.92 27.34 99.95 23.85 C 97.19 23.85 94.42 23.85 91.66 23.84 C 91.67 27.34 91.65 30.83 91.74 34.32 C 90.26 34.33 88.77 34.33 87.29 34.33 C 87.81 27.95 86.54 21.37 88.00 15.11 M 91.39 19.65 C 94.34 19.79 97.29 19.77 100.24 19.69 C 99.94 17.13 99.13 13.97 96.03 13.71 C 92.75 13.63 91.56 16.94 91.39 19.65 Z" />
<path fill="#ffffff" opacity="1.00" d=" M 111.00 12.99 C 114.07 10.10 118.49 9.73 122.49 9.79 C 122.49 11.20 122.49 12.62 122.49 14.03 C 119.80 14.13 116.83 13.87 114.55 15.58 C 110.42 18.32 110.07 25.00 113.87 28.17 C 116.14 30.43 119.60 29.89 122.51 30.13 C 122.50 31.49 122.50 32.85 122.49 34.21 C 118.23 34.40 113.41 34.10 110.31 30.77 C 105.39 26.05 105.75 17.33 111.00 12.99 Z" />
<path fill="#ffffff" opacity="1.00" d=" M 125.51 9.86 C 126.60 9.86 128.76 9.86 129.85 9.86 C 129.83 13.16 129.81 16.46 129.82 19.76 C 131.30 19.43 133.23 19.69 134.18 18.24 C 135.83 15.62 136.82 12.64 138.18 9.87 C 139.79 9.86 141.40 9.85 143.01 9.83 C 141.10 13.84 139.48 18.02 136.88 21.65 C 139.52 25.52 141.06 29.97 143.00 34.20 C 141.39 34.19 139.78 34.18 138.17 34.17 C 136.87 31.30 135.85 28.29 134.37 25.51 C 133.62 23.71 131.38 23.96 129.83 23.50 C 129.81 27.06 129.82 30.61 129.86 34.17 C 128.41 34.18 126.96 34.18 125.51 34.18 C 125.54 26.07 125.53 17.97 125.51 9.86 Z" />
<path fill="#ffffff" opacity="1.00" d=" M 149.16 10.86 C 151.78 9.50 154.82 9.92 157.66 9.83 C 157.65 11.24 157.65 12.65 157.64 14.06 C 155.14 14.39 151.50 13.13 150.07 15.93 C 149.86 17.25 149.73 18.58 149.68 19.93 C 152.32 20.06 154.97 20.08 157.61 19.99 C 157.64 21.39 157.66 22.79 157.69 24.18 C 155.06 24.19 152.43 24.18 149.80 24.19 C 149.80 27.51 149.81 30.84 149.85 34.17 C 148.39 34.17 146.94 34.18 145.48 34.18 C 145.54 28.79 145.47 23.39 145.51 17.99 C 145.42 15.20 146.67 12.28 149.16 10.86 Z" />
<path fill="#ffffff" opacity="1.00" d=" M 161.55 9.86 C 162.99 9.86 164.43 9.86 165.87 9.86 C 165.84 17.96 165.81 26.07 165.89 34.17 C 164.44 34.18 162.99 34.18 161.54 34.18 C 161.58 26.07 161.57 17.97 161.55 9.86 Z" />
<path fill="#ffffff" opacity="1.00" d=" M 173.42 10.58 C 177.01 9.28 180.93 10.06 184.67 9.87 C 184.66 11.28 184.65 12.69 184.64 14.10 C 181.46 14.15 178.26 13.91 175.09 14.25 C 174.04 14.95 173.46 16.43 174.64 17.35 C 177.59 19.90 181.93 20.46 184.42 23.63 C 187.30 27.04 185.26 33.14 180.78 33.90 C 177.11 34.51 173.34 34.04 169.63 34.17 C 169.64 32.76 169.65 31.35 169.67 29.94 C 173.27 29.81 176.94 30.28 180.51 29.64 C 181.69 28.62 181.83 27.48 180.94 26.23 C 177.97 23.61 173.59 23.02 171.04 19.86 C 168.63 16.95 169.88 11.95 173.42 10.58 Z" />
<path fill="#ffffff" opacity="1.00" d=" M 188.61 9.86 C 189.67 9.86 191.81 9.86 192.87 9.86 C 192.85 13.10 192.84 16.34 192.83 19.58 C 195.80 19.58 198.77 19.58 201.75 19.55 C 201.67 16.32 201.65 13.09 201.65 9.86 C 203.10 9.86 204.55 9.86 206.00 9.87 L 206.00 34.16 C 204.55 34.17 203.10 34.18 201.65 34.19 C 201.66 30.68 201.66 27.17 201.73 23.66 C 198.76 23.65 195.80 23.65 192.83 23.65 C 192.84 27.15 192.85 30.66 192.88 34.17 C 191.45 34.18 190.03 34.18 188.60 34.18 C 188.63 26.07 188.63 17.97 188.61 9.86 Z" />
</g>
</svg>
