<?xml version="1.0" encoding="UTF-8" standalone="no"?>
<svg
   xmlns:dc="http://purl.org/dc/elements/1.1/"
   xmlns:cc="http://creativecommons.org/ns#"
   xmlns:rdf="http://www.w3.org/1999/02/22-rdf-syntax-ns#"
   xmlns:svg="http://www.w3.org/2000/svg"
   xmlns="http://www.w3.org/2000/svg"
   xmlns:sodipodi="http://sodipodi.sourceforge.net/DTD/sodipodi-0.dtd"
   xmlns:inkscape="http://www.inkscape.org/namespaces/inkscape"
   width="1534pt"
   height="216pt"
   viewBox="0 0 1534 216"
   version="1.1"
   id="svg3047"
   inkscape:version="0.48.4 r9939"
   sodipodi:docname="LOGO BMV sin slogan.svg"
   inkscape:export-filename="I:\Dropbox\Render Web\juanpablotinte\imagenes fuentes\LOGO BMV sin slogan.png"
   inkscape:export-xdpi="42.251556"
   inkscape:export-ydpi="42.251556">
  <metadata
     id="metadata3107">
    <rdf:RDF>
      <cc:Work
         rdf:about="">
        <dc:format>image/svg+xml</dc:format>
        <dc:type
           rdf:resource="http://purl.org/dc/dcmitype/StillImage" />
        <dc:title></dc:title>
      </cc:Work>
    </rdf:RDF>
  </metadata>
  <defs
     id="defs3105" />
  <sodipodi:namedview
     pagecolor="#ffffff"
     bordercolor="#666666"
     borderopacity="1"
     objecttolerance="10"
     gridtolerance="10"
     guidetolerance="10"
     inkscape:pageopacity="0"
     inkscape:pageshadow="2"
     inkscape:window-width="1280"
     inkscape:window-height="977"
     id="namedview3103"
     showgrid="false"
     inkscape:zoom="0.59869622"
     inkscape:cx="567.70856"
     inkscape:cy="135"
     inkscape:window-x="-4"
     inkscape:window-y="-4"
     inkscape:window-maximized="1"
     inkscape:current-layer="svg3047" />
  <g
     id="#020b1320">
    <path
       fill="#020b13"
       opacity="0.13"
       d=" M 0.00 0.00 L 502.10 0.00 L 503.08 0.99 C 335.72 1.02 168.36 0.99 1.00 1.00 L 0.00 1.00 L 0.00 0.00 Z"
       id="path3050" />
    <path
       fill="#020b13"
       opacity="0.13"
       d=" M 0.00 215.70 L 0.81 214.91 C 56.19 215.12 111.57 214.94 166.95 215.00 C 311.80 215.00 456.65 215.00 601.50 215.00 L 601.50 216.00 L 0.00 216.00 L 0.00 215.70 Z"
       id="path3052" />
  </g>
  <g
     id="#061d3353">
    <path
       fill="#061d33"
       opacity="0.33"
       d=" M 0.00 1.00 L 1.00 1.00 C 1.00 68.67 1.00 136.33 1.00 204.00 C 0.98 207.63 1.16 211.28 0.81 214.91 L 0.00 215.70 L 0.00 1.00 Z"
       id="path3055" />
  </g>
  <g
     id="#155a9eff">
    <path
       fill="#155a9e"
       opacity="1.00"
       d=" M 1.00 1.00 C 168.36 0.99 335.72 1.02 503.08 0.99 C 535.75 34.01 568.82 66.65 601.54 99.64 C 601.43 138.09 601.52 176.55 601.50 215.00 C 456.65 215.00 311.80 215.00 166.95 215.00 C 111.57 214.94 56.19 215.12 0.81 214.91 C 1.16 211.28 0.98 207.63 1.00 204.00 C 1.00 136.33 1.00 68.67 1.00 1.00 M 68.07 50.67 C 71.78 51.29 75.62 50.95 79.28 51.86 C 81.75 52.52 82.03 55.36 82.28 57.47 C 83.14 66.61 83.05 75.80 83.10 84.96 C 83.04 108.31 83.31 131.67 82.65 155.01 C 82.45 157.20 82.63 159.56 81.61 161.58 C 79.51 163.91 76.36 164.98 74.27 167.30 C 74.03 168.68 73.64 171.57 75.92 171.11 C 91.94 170.09 107.97 171.27 124.00 171.21 C 134.53 171.16 145.49 169.31 154.38 163.32 C 163.18 157.84 170.40 149.25 172.56 138.94 C 174.68 129.02 173.77 117.32 166.28 109.78 C 158.47 101.98 146.93 100.12 136.38 99.47 C 141.80 98.10 147.29 96.72 152.32 94.21 C 159.31 90.54 165.48 84.60 167.93 76.94 C 170.39 69.17 169.62 60.05 164.62 53.43 C 160.84 48.44 154.84 45.77 148.90 44.36 C 136.44 41.47 123.58 43.03 110.94 43.28 C 96.53 43.58 82.09 43.61 67.68 42.90 C 67.61 45.43 66.52 48.44 68.07 50.67 M 191.39 43.22 C 191.31 45.58 190.12 48.90 192.04 50.69 C 195.71 51.32 199.52 50.93 203.14 51.90 C 205.71 52.68 205.81 55.70 206.08 57.90 C 206.99 68.24 206.82 78.64 206.86 89.02 C 206.82 106.35 206.94 123.69 206.78 141.02 C 206.60 147.00 206.66 153.03 205.68 158.94 C 205.51 160.59 204.31 162.08 202.64 162.36 C 198.82 163.15 194.86 162.84 191.07 163.79 C 191.11 166.12 191.03 168.47 191.32 170.80 C 194.13 171.59 197.13 170.81 200.01 170.88 C 211.07 170.29 222.14 171.05 233.20 170.95 C 233.21 168.53 233.22 166.12 233.24 163.71 C 229.36 162.91 225.35 163.12 221.48 162.31 C 219.51 161.93 218.62 159.92 218.48 158.12 C 217.61 151.15 217.60 144.10 217.49 137.09 C 217.42 114.14 217.46 91.19 217.47 68.24 C 234.05 102.97 251.25 137.42 266.61 172.72 C 268.63 172.73 270.65 172.73 272.68 172.74 C 281.60 153.29 290.41 133.79 299.47 114.41 C 306.66 99.57 313.87 84.74 321.17 69.95 C 321.16 94.30 321.31 118.64 321.08 142.98 C 320.76 148.82 321.14 154.83 319.55 160.50 C 316.32 164.60 309.84 161.75 305.82 163.92 C 304.94 166.18 305.63 168.80 305.67 171.20 C 324.43 170.37 343.23 170.61 361.99 171.07 C 363.89 169.62 362.55 166.03 362.99 163.75 C 359.17 162.86 355.20 163.13 351.38 162.35 C 349.70 162.06 348.52 160.57 348.35 158.93 C 347.41 152.94 347.43 146.86 347.26 140.82 C 347.15 117.89 347.11 94.96 347.28 72.03 C 347.59 65.93 347.22 59.66 348.80 53.73 C 351.95 49.58 358.21 52.17 362.52 50.43 C 363.49 48.25 362.95 45.56 362.69 43.22 C 348.87 43.07 334.97 44.01 321.13 42.93 C 315.74 57.16 308.85 70.75 302.50 84.57 C 294.73 101.53 286.51 118.28 278.21 134.98 C 263.73 104.35 248.48 74.07 235.09 42.93 C 220.54 43.98 205.92 43.15 191.39 43.22 M 374.48 50.53 C 378.35 51.73 383.30 50.36 386.41 53.50 C 390.10 58.59 392.24 64.61 394.83 70.29 C 408.84 104.13 422.75 138.00 436.74 171.85 C 441.32 171.84 445.91 171.86 450.50 171.83 C 461.05 142.85 473.29 114.52 484.91 85.96 C 489.42 75.82 492.99 65.19 498.54 55.56 C 500.76 51.25 506.08 51.35 510.25 50.88 C 510.91 48.26 510.80 45.54 510.28 42.91 C 496.40 43.59 482.48 43.72 468.61 42.86 C 468.33 45.37 467.08 48.77 469.01 50.78 C 473.02 51.33 477.15 50.95 481.11 51.91 C 482.90 52.28 483.36 54.47 483.10 56.01 C 482.63 59.24 481.45 62.30 480.46 65.39 C 471.78 90.68 461.22 115.26 451.47 140.14 C 441.14 114.31 430.31 88.67 420.46 62.65 C 419.67 59.67 417.47 56.31 419.10 53.28 C 422.80 50.22 428.18 51.85 432.36 50.47 C 433.52 48.24 432.73 45.31 432.35 42.86 C 413.24 43.64 394.10 43.64 375.00 43.04 C 373.12 44.70 373.77 48.41 374.48 50.53 Z"
       id="path3058" />
    <path
       fill="#155a9e"
       opacity="1.00"
       d=" M 109.46 53.20 C 117.49 52.54 126.27 51.34 133.68 55.28 C 140.00 58.64 142.21 66.30 141.95 73.01 C 141.74 80.33 139.19 88.51 132.57 92.49 C 125.53 96.71 116.97 96.01 109.10 95.83 C 109.13 81.62 108.88 67.40 109.46 53.20 Z"
       id="path3060" />
    <path
       fill="#155a9e"
       opacity="1.00"
       d=" M 109.09 105.73 C 118.55 105.28 129.10 104.89 137.08 110.88 C 144.15 116.18 146.15 125.61 145.83 133.98 C 145.72 142.69 142.87 152.23 135.32 157.33 C 127.80 162.58 118.11 161.89 109.44 161.03 C 108.73 142.61 109.24 124.16 109.09 105.73 Z"
       id="path3062" />
  </g>
  <g
     id="#a8cf45ff">
    <path
       fill="#a8cf45"
       opacity="1.00"
       d=" M 530.09 0.88 C 553.89 0.87 577.69 0.88 601.49 0.88 C 601.49 24.68 601.50 48.48 601.49 72.27 C 577.68 48.48 553.89 24.68 530.09 0.88 Z"
       id="path3065" />
  </g>
  <g
     id="#fefefeff">
    <path
       fill="#fefefe"
       opacity="1.00"
       d=" M 68.07 50.67 C 66.52 48.44 67.61 45.43 67.68 42.90 C 82.09 43.61 96.53 43.58 110.94 43.28 C 123.58 43.03 136.44 41.47 148.90 44.36 C 154.84 45.77 160.84 48.44 164.62 53.43 C 169.62 60.05 170.39 69.17 167.93 76.94 C 165.48 84.60 159.31 90.54 152.32 94.21 C 147.29 96.72 141.80 98.10 136.38 99.47 C 146.93 100.12 158.47 101.98 166.28 109.78 C 173.77 117.32 174.68 129.02 172.56 138.94 C 170.40 149.25 163.18 157.84 154.38 163.32 C 145.49 169.31 134.53 171.16 124.00 171.21 C 107.97 171.27 91.94 170.09 75.92 171.11 C 73.64 171.57 74.03 168.68 74.27 167.30 C 76.36 164.98 79.51 163.91 81.61 161.58 C 82.63 159.56 82.45 157.20 82.65 155.01 C 83.31 131.67 83.04 108.31 83.10 84.96 C 83.05 75.80 83.14 66.61 82.28 57.47 C 82.03 55.36 81.75 52.52 79.28 51.86 C 75.62 50.95 71.78 51.29 68.07 50.67 M 109.46 53.20 C 108.88 67.40 109.13 81.62 109.10 95.83 C 116.97 96.01 125.53 96.71 132.57 92.49 C 139.19 88.51 141.74 80.33 141.95 73.01 C 142.21 66.30 140.00 58.64 133.68 55.28 C 126.27 51.34 117.49 52.54 109.46 53.20 M 109.09 105.73 C 109.24 124.16 108.73 142.61 109.44 161.03 C 118.11 161.89 127.80 162.58 135.32 157.33 C 142.87 152.23 145.72 142.69 145.83 133.98 C 146.15 125.61 144.15 116.18 137.08 110.88 C 129.10 104.89 118.55 105.28 109.09 105.73 Z"
       id="path3068" />
    <path
       fill="#fefefe"
       opacity="1.00"
       d=" M 191.39 43.22 C 205.92 43.15 220.54 43.98 235.09 42.93 C 248.48 74.07 263.73 104.35 278.21 134.98 C 286.51 118.28 294.73 101.53 302.50 84.57 C 308.85 70.75 315.74 57.16 321.13 42.93 C 334.97 44.01 348.87 43.07 362.69 43.22 C 362.95 45.56 363.49 48.25 362.52 50.43 C 358.21 52.17 351.95 49.58 348.80 53.73 C 347.22 59.66 347.59 65.93 347.28 72.03 C 347.11 94.96 347.15 117.89 347.26 140.82 C 347.43 146.86 347.41 152.94 348.35 158.93 C 348.52 160.57 349.70 162.06 351.38 162.35 C 355.20 163.13 359.17 162.86 362.99 163.75 C 362.55 166.03 363.89 169.62 361.99 171.07 C 343.23 170.61 324.43 170.37 305.67 171.20 C 305.63 168.80 304.94 166.18 305.82 163.92 C 309.84 161.75 316.32 164.60 319.55 160.50 C 321.14 154.83 320.76 148.82 321.08 142.98 C 321.31 118.64 321.16 94.30 321.17 69.95 C 313.87 84.74 306.66 99.57 299.47 114.41 C 290.41 133.79 281.60 153.29 272.68 172.74 C 270.65 172.73 268.63 172.73 266.61 172.72 C 251.25 137.42 234.05 102.97 217.47 68.24 C 217.46 91.19 217.42 114.14 217.49 137.09 C 217.60 144.10 217.61 151.15 218.48 158.12 C 218.62 159.92 219.51 161.93 221.48 162.31 C 225.35 163.12 229.36 162.91 233.24 163.71 C 233.22 166.12 233.21 168.53 233.20 170.95 C 222.14 171.05 211.07 170.29 200.01 170.88 C 197.13 170.81 194.13 171.59 191.32 170.80 C 191.03 168.47 191.11 166.12 191.07 163.79 C 194.86 162.84 198.82 163.15 202.64 162.36 C 204.31 162.08 205.51 160.59 205.68 158.94 C 206.66 153.03 206.60 147.00 206.78 141.02 C 206.94 123.69 206.82 106.35 206.86 89.02 C 206.82 78.64 206.99 68.24 206.08 57.90 C 205.81 55.70 205.71 52.68 203.14 51.90 C 199.52 50.93 195.71 51.32 192.04 50.69 C 190.12 48.90 191.31 45.58 191.39 43.22 Z"
       id="path3070" />
    <path
       fill="#fefefe"
       opacity="1.00"
       d=" M 374.48 50.53 C 373.77 48.41 373.12 44.70 375.00 43.04 C 394.10 43.64 413.24 43.64 432.35 42.86 C 432.73 45.31 433.52 48.24 432.36 50.47 C 428.18 51.85 422.80 50.22 419.10 53.28 C 417.47 56.31 419.67 59.67 420.46 62.65 C 430.31 88.67 441.14 114.31 451.47 140.14 C 461.22 115.26 471.78 90.68 480.46 65.39 C 481.45 62.30 482.63 59.24 483.10 56.01 C 483.36 54.47 482.90 52.28 481.11 51.91 C 477.15 50.95 473.02 51.33 469.01 50.78 C 467.08 48.77 468.33 45.37 468.61 42.86 C 482.48 43.72 496.40 43.59 510.28 42.91 C 510.80 45.54 510.91 48.26 510.25 50.88 C 506.08 51.35 500.76 51.25 498.54 55.56 C 492.99 65.19 489.42 75.82 484.91 85.96 C 473.29 114.52 461.05 142.85 450.50 171.83 C 445.91 171.86 441.32 171.84 436.74 171.85 C 422.75 138.00 408.84 104.13 394.83 70.29 C 392.24 64.61 390.10 58.59 386.41 53.50 C 383.30 50.36 378.35 51.73 374.48 50.53 Z"
       id="path3072" />
  </g>
  <g
     id="#373435ff"
     transform="matrix(0.65914243,0,0,0.65914243,-426.58265,194.38717)"
     style="fill:#999999">
    <path
       d="m 669.41,68.4 c 0.04,-1.26 0.1,-2.51 0.17,-3.76 11.12,0.81 22.27,0.45 33.4,0.02 6.24,-0.11 12.69,-0.4 18.68,1.64 5.71,1.92 9.76,7.61 10.05,13.58 0.51,6.74 -3.25,13.36 -8.83,17 -3.39,2.24 -7.31,3.45 -11.21,4.47 6.55,0.76 13.82,1.45 18.84,6.22 5.25,4.95 6.22,12.9 4.66,19.65 -2.02,8.98 -9.53,15.77 -17.8,19.16 -8.02,3.38 -16.92,2.55 -25.4,2.28 -5.91,-0.27 -11.83,-0.1 -17.73,0.25 0.01,-0.66 0.02,-1.98 0.02,-2.64 1.51,-0.82 3.04,-1.61 4.56,-2.43 1.75,-20.56 0.84,-41.24 0.99,-61.85 -0.26,-3.89 0.47,-8.09 -1.08,-11.75 -2.68,-1.87 -6.23,-1.35 -9.32,-1.84 m 22.32,1.84 c -0.73,9.8 -0.51,19.63 -0.53,29.44 6.81,0.25 13.96,0.65 20.38,-2.06 10.09,-4.23 11.56,-21.69 1.09,-26.29 -6.62,-2.71 -14.03,-2.01 -20.94,-1.09 m -0.53,34.27 c -0.05,12.81 0.01,25.61 0.1,38.42 7.51,1.34 15.8,1.86 22.76,-1.78 7.03,-3.84 9.86,-12.47 9.2,-20.08 -0.35,-5.81 -3.23,-12.14 -8.95,-14.36 -7.35,-2.78 -15.39,-2.48 -23.11,-2.2 z"
       id="path3075"
       inkscape:connector-curvature="0"
       style="fill:#999999" />
    <path
       d="m 1094.08,68.3 c 7.45,0.41 14.92,0.28 22.38,0.01 0.05,1.15 0.12,2.3 0.2,3.46 -2.98,0.31 -6.04,0.16 -8.91,1.02 -2.45,0.95 -2.08,4.05 -2.27,6.16 -0.36,19.69 -0.5,39.4 0,59.09 0.31,2.12 -0.24,5.18 2.04,6.38 2.87,0.99 6,0.78 9.01,1.03 0,1.16 0.01,2.33 0.04,3.5 -10.97,-0.53 -21.95,-0.58 -32.91,0.07 -0.06,-0.87 -0.16,-2.62 -0.22,-3.49 3.77,-0.71 10.82,0.95 11.03,-4.67 0.79,-20.26 0.3,-40.54 0.42,-60.81 -10.1,21.54 -20.96,42.74 -30.27,64.64 -1.14,2.14 -1.3,5.6 -4.37,5.68 -10.25,-23.09 -21.71,-45.61 -32.53,-68.44 0.2,19.72 -0.5,39.48 0.49,59.18 0.41,5.28 7.2,3.66 10.84,4.24 -0.01,1.18 0,2.37 0.03,3.56 -9.28,-0.5 -18.56,-0.42 -27.83,0.01 -0.01,-1.19 -0.01,-2.38 0,-3.57 3.18,-0.38 6.77,0.28 9.63,-1.42 1.94,-2.09 1.19,-5.33 1.48,-7.94 0.23,-16.64 0.23,-33.28 0.09,-49.92 -0.15,-3.92 0.11,-7.92 -0.8,-11.77 -2.31,-3.17 -6.99,-1.81 -10.36,-2.39 -0.05,-0.86 -0.15,-2.57 -0.2,-3.43 7.38,-0.04 14.76,0.28 22.14,-0.17 9.54,21.72 20.48,42.79 30.72,64.18 10.03,-21.4 20.96,-42.4 30.13,-64.19 z"
       id="path3077"
       inkscape:connector-curvature="0"
       style="fill:#999999" />
    <path
       d="m 1408.53,80.85 c 3.68,-1.23 6.96,-3.48 10.8,-4.28 -0.39,7.28 -0.98,14.54 -1.24,21.83 5.39,0.08 10.79,0.08 16.19,-0.26 -0.41,1.87 -0.81,3.74 -1.22,5.6 -5,-0.02 -9.98,-0.03 -14.96,0.03 0.08,11.39 -0.94,22.83 0.15,34.18 1.41,6.33 9.62,5.25 14.05,2.93 0.3,0.47 0.91,1.4 1.22,1.87 -3.35,2.46 -5.99,6.54 -10.46,6.88 -4.24,0.49 -9.16,-0.11 -12.15,-3.45 -2.71,-3.04 -2.82,-7.34 -2.71,-11.18 0.49,-10.31 0.22,-20.64 0.28,-30.95 -2.98,0.04 -5.94,0.12 -8.9,0.19 0.12,-0.55 0.37,-1.65 0.49,-2.19 2.81,-1.54 5.91,-2.49 8.78,-3.95 -0.05,-5.75 -0.03,-11.5 -0.32,-17.25 z"
       id="path3079"
       inkscape:connector-curvature="0"
       style="fill:#999999" />
    <path
       d="m 748.74,99.73 c 6.95,-5.12 15.52,-8.86 24.33,-7.59 7.13,0.63 14.22,5.57 15.59,12.89 1.11,6.93 -0.08,13.97 0.2,20.95 0.24,5.92 -0.55,11.93 0.48,17.79 1.82,2.04 5.03,1.35 7.49,1.95 -0.04,0.8 -0.1,2.38 -0.14,3.18 -5.82,-0.57 -11.66,-0.11 -17.48,-0.17 -0.73,-3.34 -0.09,-6.79 -0.14,-10.17 -4.52,3.3 -8.66,7.13 -13.36,10.16 -6.97,2.75 -16.88,1.26 -20.47,-6.04 -3.44,-7.94 -0.61,-19.21 7.91,-22.63 8.27,-3.41 17.22,-4.63 26,-6.02 -0.27,-4.28 -0.62,-9.13 -3.93,-12.28 -4.54,-4.17 -11.51,-4.44 -17.11,-2.56 -4.28,0.94 -4.55,6.05 -6.34,9.27 -4.68,-0.31 -2.62,-5.65 -3.03,-8.73 m 11,23.06 c -5.3,2.79 -6.46,9.92 -4.74,15.19 1.38,4.1 6.26,5.31 10.11,4.72 5.75,-0.66 10.18,-4.84 13.94,-8.89 0.02,-5.38 0.01,-10.77 0.01,-16.15 -6.53,1.27 -13.29,2.17 -19.32,5.13 z"
       id="path3081"
       inkscape:connector-curvature="0"
       style="fill:#999999" />
    <path
       d="m 814.76,92.77 c 1.05,-0.23 2.42,-1.18 3.27,0.01 0,3.47 -0.34,6.94 -0.39,10.42 5.24,-3.59 8.92,-9.96 15.65,-10.9 6.72,-1.35 14.15,0.47 19.21,5.18 3.78,3.78 4.29,9.45 4.37,14.51 -0.01,9.03 0.04,18.05 0.35,27.07 0.15,1.85 0.15,3.86 1.23,5.47 2.39,1.03 5.07,0.83 7.63,0.98 0.04,1.15 0.1,2.3 0.17,3.45 -6.63,-0.46 -13.28,-0.59 -19.89,0.04 0.56,-12.34 0.87,-24.71 0.4,-37.06 0,-4.78 -2.7,-9.64 -7.27,-11.41 -5.19,-1.91 -11.44,-1.41 -15.94,1.94 -2.87,2.02 -6.02,4.72 -5.95,8.56 -0.31,9.66 -0.12,19.34 0.37,29 0.2,1.54 0.04,3.44 1.36,4.55 2.58,0.81 5.35,0.73 8.03,1.08 -0.05,0.82 -0.16,2.47 -0.21,3.3 -9.75,-0.6 -19.53,-0.57 -29.28,-0.01 -0.06,-0.82 -0.17,-2.46 -0.23,-3.28 3.03,-0.84 8.8,0.81 9.22,-3.59 0.92,-11.36 0.84,-22.8 0.55,-34.19 -0.31,-2.4 0.14,-5.13 -1.06,-7.29 -2.76,-1.08 -5.87,-0.48 -8.76,-0.68 -0.06,-0.82 -0.18,-2.46 -0.24,-3.28 5.87,-0.97 11.79,-1.84 17.41,-3.87 z"
       id="path3083"
       inkscape:connector-curvature="0"
       style="fill:#999999" />
    <path
       d="m 894.2,92.14 c 7.26,-1.41 15.2,-0.81 21.77,2.8 -0.93,5.09 -1.38,10.24 -1.83,15.39 -0.84,-0.01 -2.52,-0.03 -3.36,-0.04 -0.58,-3.13 0.53,-7.56 -2.8,-9.41 -6.9,-4.34 -17.14,-5.08 -23.34,0.86 -4.84,5.47 -5.18,13.38 -4.48,20.29 1.03,7.54 4.01,15.83 11.13,19.62 7.32,4.21 16.41,2.62 23.59,-1.11 1.75,2.15 -0.47,4.72 -2.22,6.04 -8.11,4.12 -17.9,4.88 -26.58,2.24 -9.39,-2.87 -15.7,-12.15 -16.61,-21.7 -0.99,-9.44 0.57,-20.86 8.88,-26.76 5.04,-3.14 10.17,-6.36 15.85,-8.22 z"
       id="path3085"
       inkscape:connector-curvature="0"
       style="fill:#999999" />
    <path
       d="m 942.27,92.34 c 9.06,-1.84 19.34,-0.39 26.36,6.03 12.91,11.35 11.68,34.05 -1.3,44.89 -9.94,9.08 -26.71,10.45 -37.21,1.57 -12.02,-9.36 -13.9,-28.08 -5.87,-40.58 4.2,-6.06 10.8,-10.43 18.02,-11.91 m -0.85,4.15 c -6.13,2 -9.53,8.35 -10.33,14.42 -1.04,7.86 -0.45,16.11 2.53,23.51 2.68,6.59 8.92,12.31 16.37,12.17 5.88,0.23 11.32,-3.62 13.73,-8.87 2.7,-5.84 2.72,-12.49 2.22,-18.78 -0.67,-6.66 -2.62,-13.57 -7.24,-18.6 -4.31,-4.63 -11.42,-5.77 -17.28,-3.85 z"
       id="path3087"
       inkscape:connector-curvature="0"
       style="fill:#999999" />
    <path
       d="m 1125.75,101.74 c 6.14,-4.51 13.53,-7.98 21.33,-7.47 6.26,0.14 12.87,3.16 15.74,8.98 2.66,5.53 1.4,11.81 1.46,17.71 0.02,7.26 -0.27,14.54 0.13,21.78 0.45,3.46 4.94,2.41 7.45,3.08 -0.02,0.76 -0.05,2.29 -0.07,3.05 -5.66,-0.4 -11.33,-0.33 -16.98,0 -0.18,-3.3 -0.1,-6.61 0.03,-9.91 -4.17,3.11 -8.1,6.56 -12.37,9.52 -6.78,3.04 -16.73,1.49 -20.17,-5.76 -2.27,-5.56 -1.45,-12.43 2.13,-17.27 2.05,-2.85 5.36,-4.35 8.61,-5.42 7.1,-2.31 14.51,-3.48 21.88,-4.59 -0.27,-4.28 -0.66,-9.19 -4.18,-12.15 -4.53,-3.71 -11.14,-3.88 -16.45,-1.92 -3.7,1.13 -3.94,5.7 -5.61,8.63 -0.98,-0.28 -1.95,-0.56 -2.9,-0.84 -0.02,-2.47 -0.02,-4.94 -0.03,-7.42 m 10.79,21.98 c -5.24,2.54 -6.43,9.47 -4.83,14.58 0.95,3.06 4.2,4.67 7.24,4.72 5.34,0.42 10.11,-2.74 13.74,-6.35 0.93,-1.03 2.29,-2.02 2.12,-3.6 0.14,-4.72 -0.04,-9.44 0.03,-14.15 -6.19,1.17 -12.56,2.09 -18.3,4.8 z"
       id="path3089"
       inkscape:connector-curvature="0"
       style="fill:#999999" />
    <path
       d="m 1180.23,101.16 c 3.58,-4.38 9.19,-6.69 14.73,-7.2 6.41,-0.71 12.77,0.94 18.81,2.95 -0.23,4.39 -0.39,8.78 -0.53,13.17 -0.76,-0.01 -2.28,-0.02 -3.04,-0.02 -0.46,-2.92 -0.36,-6.41 -2.93,-8.41 -4.47,-3.78 -11.08,-4.71 -16.55,-2.86 -4.49,1.6 -6.73,7.12 -4.92,11.46 0.97,2.61 3.62,4.03 6.17,4.73 6,1.72 12.2,2.81 18.04,5.07 3.16,1.2 5.83,3.79 6.79,7.08 1.7,5.71 -0.21,12.15 -4.4,16.32 -4.46,4.74 -11.02,7.01 -17.43,7.03 -6.42,0.02 -12.77,-1.17 -18.99,-2.61 0.82,-5.29 1.11,-10.64 1.08,-15.98 0.82,-0.05 2.45,-0.14 3.26,-0.18 0.28,3 0.25,6.05 0.91,9.01 2.31,3.09 6.19,4.42 9.81,5.28 5.43,1.2 12.07,0.47 15.69,-4.23 3.01,-3.49 3.17,-9.78 -1.1,-12.36 -6.78,-3.92 -15.08,-3.65 -22.04,-7.09 -7.42,-3.99 -8.49,-14.93 -3.36,-21.16 z"
       id="path3091"
       inkscape:connector-curvature="0"
       style="fill:#999999" />
    <path
       d="m 1297.72,96.8 c 9.6,-5.11 23.29,-3.68 29.8,5.64 3.35,5.12 4.11,11.52 3.43,17.49 -12.52,2.18 -25.28,1.26 -37.91,1.48 0.24,5.54 1.03,11.46 4.65,15.91 4.56,5.63 12.33,8.01 19.37,6.69 4.19,-0.63 7.82,-2.94 11.62,-4.68 1.82,1.14 -0.51,3.61 -1.24,4.98 -10.69,7.78 -27.04,8.42 -37.26,-0.5 -9.18,-8.68 -9.77,-23.15 -5.49,-34.38 2.03,-6.04 7.67,-9.77 13.03,-12.63 m -0.99,5.95 c -3.03,4.05 -3.49,9.28 -3.71,14.15 9.26,0.52 18.54,0.83 27.81,0.37 -0.04,-5.07 -0.14,-10.61 -3.3,-14.86 -4.86,-6.53 -16.11,-6.23 -20.8,0.34 z"
       id="path3093"
       inkscape:connector-curvature="0"
       style="fill:#999999" />
    <path
       d="m 1367.44,94.56 c 6.34,-1.22 13.3,0.49 18.11,4.86 3.64,3.46 4.24,8.79 4.33,13.55 0.03,8.69 0.04,17.38 0.33,26.07 0.11,1.89 0.16,3.89 1.11,5.59 2.35,1.03 5,0.86 7.53,1.1 -0.02,1.06 -0.02,2.13 0.01,3.19 -6.35,-0.42 -12.72,-0.54 -19.06,0.05 0.55,-11.96 0.88,-23.95 0.37,-35.92 -0.11,-3.9 -2.02,-7.83 -5.46,-9.81 -7.63,-4.3 -18.48,-0.73 -22.15,7.15 -0.99,9.48 -0.29,19.08 -0.06,28.6 0.29,1.95 -0.23,4.7 1.74,5.91 2.39,0.54 4.87,0.6 7.32,0.85 -0.04,0.8 -0.13,2.4 -0.18,3.2 -9.35,-0.61 -18.72,-0.54 -28.07,-0.03 -0.06,-0.78 -0.18,-2.33 -0.24,-3.1 2.98,-0.82 8.69,0.72 8.89,-3.72 0.82,-10.56 0.76,-21.18 0.54,-31.76 -0.26,-2.58 0.06,-5.35 -0.99,-7.75 -2.71,-1.05 -5.75,-0.52 -8.58,-0.74 -0.01,-0.79 -0.03,-2.37 -0.04,-3.15 6.78,-0.64 13.24,-2.86 19.87,-4.17 -0.23,3.5 -0.41,7.01 -0.48,10.52 5.03,-3.5 8.65,-9.64 15.16,-10.49 z"
       id="path3095"
       inkscape:connector-curvature="0"
       style="fill:#999999" />
    <path
       d="m 1441.66,101.74 c 5.88,-4.28 12.83,-7.69 20.27,-7.5 5.91,-0.06 12.19,2.19 15.71,7.16 2.57,3.63 2.94,8.25 2.75,12.56 -0.35,8.71 -0.25,17.43 -0.25,26.15 0.11,1.54 -0.13,3.35 1.05,4.58 2.02,0.78 4.25,0.77 6.41,1.01 0.03,1.05 0.09,2.11 0.16,3.17 -5.67,-0.4 -11.35,-0.34 -17.01,0.02 -0.23,-3.31 -0.14,-6.63 0,-9.94 -4.17,3.12 -8.1,6.57 -12.38,9.53 -6.96,3.19 -17.43,1.32 -20.46,-6.47 -1.92,-5.69 -0.99,-12.53 2.94,-17.19 2.22,-2.72 5.63,-3.98 8.88,-5.05 6.86,-2.14 13.99,-3.26 21.09,-4.34 -0.25,-4.26 -0.65,-9.15 -4.14,-12.11 -4.54,-3.75 -11.19,-3.92 -16.52,-1.94 -3.67,1.15 -3.92,5.69 -5.55,8.61 -0.99,-0.28 -1.97,-0.56 -2.93,-0.84 -0.01,-2.47 -0.02,-4.94 -0.02,-7.41 m 10.92,21.91 c -5.3,2.46 -6.56,9.38 -5.01,14.52 0.92,3.16 4.24,4.82 7.35,4.86 5.34,0.38 10.1,-2.79 13.72,-6.4 0.9,-1.01 2.24,-1.98 2.07,-3.52 0.14,-4.73 -0.03,-9.46 0.04,-14.19 -6.15,1.15 -12.45,2.09 -18.17,4.73 z"
       id="path3097"
       inkscape:connector-curvature="0"
       style="fill:#999999" />
    <path
       d="m 1498.67,98.65 c 8.83,-6.97 21.13,-5.34 31.03,-1.71 -0.27,4.37 -0.42,8.75 -0.54,13.13 -0.76,0 -2.27,0.01 -3.03,0.01 -0.49,-2.9 -0.38,-6.36 -2.9,-8.39 -4.47,-3.81 -11.1,-4.75 -16.59,-2.91 -4.27,1.54 -6.57,6.6 -5.15,10.86 0.64,2.32 2.61,4.02 4.83,4.8 6.92,2.37 14.37,3.16 21.04,6.29 4.46,2.19 6.51,7.49 5.88,12.26 -0.72,8.6 -8.41,15.18 -16.52,16.83 -8.28,1.66 -16.73,-0.19 -24.83,-1.95 0.82,-5.29 1.11,-10.65 1.07,-16 0.83,-0.03 2.48,-0.09 3.31,-0.12 0.23,2.98 0.19,6.02 0.87,8.95 2.31,3.14 6.26,4.47 9.92,5.32 5.44,1.18 12.06,0.4 15.64,-4.32 2.95,-3.51 3.07,-9.73 -1.17,-12.29 -6.94,-4.05 -15.54,-3.58 -22.56,-7.41 -8.12,-4.93 -7.77,-17.97 -0.3,-23.35 z"
       id="path3099"
       inkscape:connector-curvature="0"
       style="fill:#999999" />
    <path
       d="m 1220.01,95.56 c 8.91,0.3 17.84,0.49 26.76,-0.07 0.01,1.09 0.04,2.19 0.1,3.28 -2.69,0.6 -6.73,-0.56 -8.3,2.19 0.51,4.83 2.99,9.16 4.63,13.67 3.22,8.15 6.57,16.25 10.04,24.3 4.62,-10.17 8.86,-20.51 12.89,-30.94 0.84,-2.49 1.91,-5.05 1.72,-7.73 -2.36,-1.44 -5.27,-1.12 -7.88,-1.5 0,-0.81 0,-2.41 0,-3.21 7.21,0.34 14.42,0.41 21.64,-0.04 0.01,0.79 0.03,2.38 0.03,3.18 -2.46,0.49 -5.59,0.58 -6.71,3.29 -8.13,15.41 -15.05,31.43 -21.68,47.54 -1.99,0 -3.97,0.01 -5.93,0.01 -5.69,-14.68 -12.33,-28.96 -18.39,-43.49 -1.04,-2.19 -1.75,-4.71 -3.63,-6.34 -1.63,-0.81 -3.53,-0.68 -5.26,-0.99 -0.01,-0.79 -0.02,-2.36 -0.03,-3.15 z"
       id="path3101"
       inkscape:connector-curvature="0"
       style="fill:#999999" />
  </g>
</svg>
