<?xml version="1.0" encoding="UTF-8" ?>
<!DOCTYPE svg PUBLIC "-//W3C//DTD SVG 1.1//EN" "http://www.w3.org/Graphics/SVG/1.1/DTD/svg11.dtd">
<svg width="370pt" height="116pt" viewBox="0 0 370 116" version="1.1" xmlns="http://www.w3.org/2000/svg">
<g id="#d10018ff">
</g>
<g id="#ffffffff">
<path fill="#ffffff" opacity="1.00" d=" M 174.53 27.16 C 178.14 24.35 181.29 20.97 185.03 18.34 C 190.58 17.66 195.08 22.75 195.39 28.00 C 195.69 33.48 195.41 38.98 195.50 44.47 C 199.59 40.78 203.80 37.22 207.87 33.50 C 210.93 34.56 214.37 36.42 214.74 40.02 C 215.19 47.68 214.48 55.39 215.05 63.03 C 215.63 66.13 219.11 64.13 220.57 62.84 C 220.04 57.84 218.85 52.70 220.46 47.76 C 222.02 41.34 226.97 36.35 232.72 33.39 C 239.23 35.48 245.85 37.22 252.37 39.28 C 252.84 40.55 253.32 41.82 253.80 43.09 C 257.44 39.65 261.32 36.47 265.01 33.07 C 268.27 34.09 272.00 36.15 272.28 39.96 C 272.51 47.00 272.24 54.06 272.35 61.10 C 272.34 62.37 272.48 63.69 273.21 64.78 C 274.79 64.90 276.08 63.91 277.41 63.24 C 277.35 53.77 277.37 44.29 277.40 34.82 C 281.89 34.84 286.38 34.83 290.88 34.83 C 290.87 42.20 290.92 49.58 290.86 56.95 C 290.92 58.95 290.78 61.16 291.97 62.90 C 292.99 64.63 295.21 64.71 296.89 65.42 C 294.24 67.72 291.69 70.14 289.12 72.52 C 284.49 72.02 280.01 69.97 277.64 65.78 C 274.31 68.26 271.88 73.47 267.06 72.58 C 262.62 72.42 259.30 68.30 258.76 64.12 C 258.30 58.00 259.09 51.83 258.40 45.72 C 257.18 45.35 255.95 45.05 254.71 44.82 C 255.23 51.88 255.03 59.64 250.43 65.47 C 246.36 71.15 238.84 74.03 232.06 72.06 C 227.87 71.00 224.65 67.95 221.86 64.81 C 219.04 67.39 216.25 70.01 213.49 72.66 C 209.00 73.02 203.59 71.63 201.95 66.90 C 200.32 61.39 201.83 55.51 201.09 49.87 C 200.42 47.46 197.44 47.76 195.53 47.31 C 195.48 55.50 195.50 63.70 195.51 71.90 C 190.95 71.94 186.39 72.16 181.83 71.93 C 181.83 69.40 181.84 66.87 181.84 64.34 C 178.88 66.98 176.27 70.04 173.05 72.37 C 168.42 73.75 164.57 70.40 162.15 66.86 C 160.18 68.77 158.19 70.66 156.19 72.54 C 150.79 71.75 146.41 68.27 143.36 63.89 C 140.06 66.65 137.06 69.79 133.53 72.27 C 129.89 73.41 125.12 72.43 123.25 68.80 C 120.82 64.28 121.73 58.95 121.56 54.04 C 121.42 47.50 121.86 40.94 121.36 34.42 C 121.05 31.90 118.08 31.82 116.17 31.29 C 116.11 44.82 116.16 58.35 116.15 71.88 C 111.16 72.00 106.18 72.13 101.19 72.06 C 101.18 61.04 101.08 50.01 101.14 38.99 C 101.09 37.10 101.18 35.14 100.53 33.34 C 99.60 31.57 97.26 31.64 95.61 31.06 C 95.51 44.67 95.58 58.28 95.57 71.89 C 90.52 71.99 85.47 72.20 80.42 71.93 C 80.54 60.29 80.50 48.65 80.35 37.01 C 80.61 32.85 77.05 30.07 73.29 29.39 C 76.74 26.82 79.69 23.64 83.15 21.10 C 88.22 19.55 94.76 22.05 95.93 27.69 C 98.47 25.32 101.07 23.01 103.68 20.72 C 106.71 20.83 110.05 20.41 112.72 22.19 C 114.84 23.33 115.59 25.73 116.47 27.79 C 119.02 25.38 121.69 23.13 124.27 20.76 C 128.83 20.32 135.08 21.15 136.37 26.42 C 136.99 36.96 136.23 47.56 136.84 58.09 C 136.99 61.05 139.44 63.01 142.38 62.39 C 141.48 57.42 140.89 52.09 142.92 47.31 C 145.50 40.46 152.63 36.25 159.66 35.43 C 165.00 35.14 170.36 35.39 175.70 35.32 C 175.67 43.20 175.69 51.07 175.67 58.95 C 175.58 60.76 176.22 62.48 176.76 64.18 C 178.59 63.24 182.17 62.86 181.82 60.08 C 181.74 51.15 181.95 42.20 181.60 33.28 C 181.37 29.60 177.80 27.64 174.53 27.16 M 235.61 66.55 C 241.69 59.80 243.23 49.63 239.04 41.51 C 233.06 48.31 232.17 58.36 235.61 66.55 M 155.25 49.84 C 153.87 54.85 156.98 60.21 162.05 61.37 C 162.05 55.23 162.31 49.07 161.83 42.93 C 158.81 44.23 156.03 46.51 155.25 49.84 Z" />
<path fill="#ffffff" opacity="1.00" d=" M 122.85 79.37 C 123.66 81.82 124.42 84.28 125.21 86.74 C 127.83 86.74 130.45 86.73 133.08 86.73 C 130.91 88.28 128.76 89.84 126.66 91.47 C 127.54 93.88 128.37 96.32 129.20 98.76 C 127.05 97.27 124.94 95.73 122.85 94.15 C 120.73 95.71 118.61 97.26 116.50 98.82 C 117.30 96.31 118.13 93.81 118.94 91.31 C 116.82 89.78 114.70 88.26 112.58 86.73 C 115.20 86.73 117.83 86.74 120.45 86.75 C 121.24 84.28 122.02 81.82 122.85 79.37 Z" />
<path fill="#ffffff" opacity="1.00" d=" M 153.95 79.39 C 154.77 81.83 155.55 84.30 156.35 86.75 C 158.98 86.74 161.61 86.73 164.24 86.74 C 162.11 88.25 159.99 89.76 157.87 91.28 C 158.64 93.80 159.47 96.31 160.29 98.82 C 158.18 97.26 156.07 95.71 153.96 94.16 C 151.82 95.73 149.68 97.31 147.59 98.94 C 148.43 96.39 149.26 93.84 150.04 91.28 C 147.93 89.77 145.82 88.26 143.72 86.75 C 146.34 86.73 148.97 86.74 151.59 86.73 C 152.37 84.28 153.14 81.83 153.95 79.39 Z" />
<path fill="#ffffff" opacity="1.00" d=" M 185.05 79.42 C 185.91 81.85 186.70 84.31 187.53 86.76 C 190.15 86.74 192.76 86.73 195.38 86.73 C 193.25 88.24 191.13 89.76 189.02 91.31 C 189.79 93.83 190.62 96.34 191.45 98.84 C 189.33 97.27 187.21 95.71 185.08 94.16 C 182.96 95.74 180.82 97.31 178.70 98.90 C 179.57 96.38 180.41 93.84 181.23 91.30 C 179.09 89.78 176.96 88.26 174.83 86.74 C 177.46 86.74 180.09 86.74 182.73 86.72 C 183.52 84.29 184.28 81.85 185.05 79.42 Z" />
<path fill="#ffffff" opacity="1.00" d=" M 213.85 86.73 C 214.66 84.26 215.43 81.79 216.19 79.31 C 217.01 81.79 217.82 84.28 218.66 86.75 C 221.27 86.75 223.87 86.73 226.49 86.73 C 224.37 88.26 222.26 89.77 220.14 91.30 C 220.93 93.83 221.77 96.34 222.60 98.86 C 220.48 97.28 218.34 95.71 216.20 94.16 C 214.09 95.74 211.95 97.31 209.82 98.86 C 210.71 96.36 211.55 93.83 212.36 91.30 C 210.22 89.77 208.08 88.24 205.93 86.74 C 208.57 86.73 211.21 86.74 213.85 86.73 Z" />
<path fill="#ffffff" opacity="1.00" d=" M 245.01 86.73 C 245.79 84.25 246.55 81.76 247.29 79.27 C 248.12 81.74 248.94 84.23 249.74 86.71 C 252.37 86.74 254.99 86.73 257.62 86.74 C 255.51 88.26 253.39 89.77 251.28 91.27 C 252.07 93.80 252.90 96.32 253.70 98.84 C 251.58 97.28 249.47 95.70 247.34 94.15 C 245.25 95.72 243.15 97.28 241.01 98.78 C 241.85 96.28 242.69 93.79 243.45 91.26 C 241.33 89.76 239.22 88.25 237.10 86.74 C 239.73 86.73 242.37 86.74 245.01 86.73 Z" />
</g>
<g id="#d10017ff">
</g>
<g id="#d00016ff">
</g>
</svg>
