<?xml version="1.0" encoding="UTF-8" ?>
<!DOCTYPE svg PUBLIC "-//W3C//DTD SVG 1.1//EN" "http://www.w3.org/Graphics/SVG/1.1/DTD/svg11.dtd">
<svg width="374pt" height="118pt" viewBox="0 0 374 118" version="1.1" xmlns="http://www.w3.org/2000/svg">
<g id="#e1395aff">
<path fill="#e1395a" opacity="1.00" d=" M 52.55 42.62 C 60.29 35.17 70.19 29.71 80.90 28.23 C 87.95 27.28 95.81 28.80 100.95 34.02 C 106.42 39.31 107.90 47.60 106.55 54.86 C 104.23 68.00 95.34 79.15 84.64 86.70 C 76.36 92.39 66.15 96.13 56.00 94.57 C 49.99 93.65 43.93 90.37 41.01 84.86 C 41.18 82.28 44.01 81.03 45.39 79.08 C 48.04 84.77 53.80 88.54 60.00 89.10 C 70.34 90.27 80.21 85.17 87.87 78.63 C 87.80 70.15 87.91 61.66 87.79 53.18 C 83.23 58.13 78.94 63.34 74.46 68.37 C 69.81 63.45 65.62 58.13 61.00 53.19 C 61.01 61.45 60.98 69.72 60.98 77.98 C 58.93 77.97 56.89 77.97 54.85 77.96 C 54.85 67.21 54.85 56.46 54.84 45.70 C 50.55 50.47 46.91 55.97 45.17 62.20 C 44.36 66.18 40.73 68.49 38.08 71.23 C 38.93 60.27 44.86 50.23 52.55 42.62 M 56.46 44.12 C 58.18 44.12 59.90 44.10 61.62 44.07 C 65.89 48.97 70.17 53.86 74.36 58.83 C 78.74 53.95 82.78 48.77 87.36 44.07 C 89.57 44.12 91.78 44.13 94.00 44.13 C 94.04 53.34 93.93 62.55 94.05 71.76 C 99.78 64.32 103.58 54.57 101.43 45.13 C 99.91 37.99 93.28 32.55 86.06 32.06 C 75.00 31.20 64.29 36.63 56.46 44.12 Z" />
<path fill="#e1395a" opacity="1.00" d=" M 115.00 48.29 C 116.37 46.26 118.29 44.21 120.93 44.16 C 128.33 44.07 135.73 44.12 143.13 44.14 C 146.73 44.07 149.94 47.39 149.84 50.98 C 149.91 59.98 149.79 68.98 149.84 77.97 C 147.61 77.97 145.39 77.97 143.17 77.97 C 143.18 74.26 143.17 70.55 143.15 66.85 C 135.82 66.86 128.48 66.77 121.15 66.90 C 121.15 70.59 121.15 74.28 121.15 77.97 C 119.05 77.97 116.95 77.97 114.85 77.97 C 114.94 68.08 114.65 58.18 115.00 48.29 M 121.27 50.24 C 121.11 53.63 121.14 57.03 121.16 60.43 C 128.48 60.58 135.79 60.47 143.11 60.49 C 143.17 57.05 143.18 53.60 143.04 50.15 C 135.78 50.21 128.52 50.06 121.27 50.24 Z" />
<path fill="#e1395a" opacity="1.00" d=" M 155.70 49.11 C 156.22 45.82 159.82 43.87 162.96 44.11 C 170.29 44.21 177.63 43.96 184.95 44.23 C 189.20 44.81 191.07 49.36 190.43 53.21 C 188.29 53.17 186.16 53.16 184.02 53.15 C 184.00 52.41 183.95 50.92 183.92 50.18 C 176.62 50.13 169.31 50.18 162.01 50.15 C 162.00 52.77 162.00 55.38 162.00 58.00 C 169.36 58.02 176.73 57.96 184.09 58.01 C 187.35 57.97 190.19 60.87 190.35 64.09 C 190.61 67.03 190.73 70.05 190.13 72.96 C 189.57 76.18 186.19 78.31 183.04 77.98 C 175.65 77.90 168.26 78.09 160.88 77.90 C 156.76 77.21 154.90 72.82 155.44 69.02 C 157.61 69.01 159.79 69.01 161.97 69.00 C 161.98 69.72 162.01 71.15 162.03 71.86 C 169.36 71.83 176.68 71.85 184.01 71.85 C 184.01 69.28 184.01 66.72 183.99 64.15 C 176.64 64.11 169.28 64.24 161.93 64.10 C 158.69 64.18 155.55 61.35 155.54 58.05 C 155.43 55.07 155.31 52.07 155.70 49.11 Z" />
<path fill="#e1395a" opacity="1.00" d=" M 38.40 76.40 C 39.99 74.38 41.95 72.70 43.78 70.91 C 43.92 72.30 44.06 73.70 44.20 75.10 C 42.66 76.72 41.15 78.39 39.47 79.87 C 37.99 79.60 38.46 77.50 38.40 76.40 Z" />
</g>
<g id="#4782c6ff">
<path fill="#4782c6" opacity="1.00" d=" M 197.04 44.15 C 207.83 44.07 218.62 44.14 229.42 44.11 C 229.51 46.41 229.52 48.70 229.53 51.00 C 221.02 51.00 212.51 51.00 204.00 51.00 C 204.00 53.33 204.00 55.67 204.00 58.00 C 210.84 58.00 217.68 58.00 224.52 58.00 C 224.50 60.28 224.49 62.56 224.40 64.84 C 217.59 64.82 210.78 64.83 203.98 64.83 C 203.96 69.38 203.94 73.94 203.94 78.49 C 201.65 78.47 199.36 78.46 197.08 78.43 C 197.04 67.00 196.93 55.57 197.04 44.15 Z" />
<path fill="#4782c6" opacity="1.00" d=" M 233.01 50.94 C 232.99 47.30 236.34 44.10 239.95 44.14 C 246.99 44.07 254.03 44.11 261.06 44.13 C 264.71 44.04 268.50 47.18 268.14 51.02 C 268.18 60.17 268.16 69.32 268.12 78.47 C 265.81 78.47 263.51 78.46 261.21 78.42 C 261.20 74.66 261.21 70.90 261.12 67.15 C 254.07 67.15 247.02 67.15 239.97 67.15 C 239.96 70.93 239.94 74.71 239.94 78.49 C 237.65 78.47 235.36 78.46 233.07 78.43 C 233.05 69.26 232.96 60.10 233.01 50.94 M 240.00 51.00 C 240.00 54.17 240.00 57.33 240.00 60.50 C 247.04 60.50 254.08 60.51 261.12 60.50 C 261.16 57.33 261.15 54.17 261.13 51.00 C 254.08 51.00 247.04 51.00 240.00 51.00 Z" />
<path fill="#4782c6" opacity="1.00" d=" M 273.98 48.32 C 275.79 45.19 279.38 43.56 282.94 44.09 C 289.60 44.23 296.26 43.93 302.92 44.22 C 307.60 44.76 309.76 49.76 308.90 53.99 C 306.59 54.00 304.30 54.00 302.00 54.00 C 302.00 53.25 302.00 51.75 302.00 51.00 C 294.96 51.00 287.91 51.00 280.87 51.00 C 280.86 53.33 280.85 55.67 280.85 58.00 C 287.93 58.02 295.01 57.98 302.10 58.00 C 305.70 57.80 309.20 61.32 308.84 64.96 C 308.81 67.82 308.97 70.70 308.66 73.56 C 307.93 76.51 305.00 78.43 302.04 78.43 C 295.02 78.51 288.00 78.46 280.98 78.46 C 278.04 78.60 275.06 76.78 274.11 73.95 C 273.77 72.27 273.86 70.54 273.81 68.84 C 276.13 68.84 278.46 68.85 280.79 68.93 C 280.81 69.66 280.86 71.12 280.88 71.85 C 287.91 71.84 294.93 71.88 301.96 71.82 C 302.03 69.49 302.03 67.16 302.03 64.83 C 295.02 64.80 288.01 64.86 281.00 64.82 C 278.17 64.88 275.36 63.23 274.16 60.64 C 273.49 56.57 273.92 52.42 273.98 48.32 Z" />
<path fill="#4782c6" opacity="1.00" d=" M 313.20 44.17 C 324.90 44.03 336.61 44.18 348.31 44.10 C 348.54 46.39 348.55 48.70 348.45 51.00 C 343.69 51.00 338.92 51.00 334.15 51.01 C 334.14 60.16 334.18 69.32 334.12 78.48 C 331.81 78.48 329.49 78.47 327.19 78.31 C 327.21 69.21 327.15 60.11 327.13 51.00 C 322.45 51.00 317.78 51.00 313.11 51.00 C 313.12 48.72 313.13 46.45 313.20 44.17 Z" />
</g>
</svg>
