<?xml version="1.0" encoding="UTF-8" ?>
<!DOCTYPE svg PUBLIC "-//W3C//DTD SVG 1.1//EN" "http://www.w3.org/Graphics/SVG/1.1/DTD/svg11.dtd">
<svg width="374pt" height="118pt" viewBox="0 0 374 118" version="1.1" xmlns="http://www.w3.org/2000/svg">
<g id="#e1395aff">
<path fill="#e1395a" opacity="1.00" d=" M 52.57 42.60 C 60.29 35.18 70.16 29.73 80.84 28.23 C 88.15 27.22 96.33 28.92 101.46 34.54 C 107.06 40.42 108.03 49.36 106.12 56.98 C 103.11 69.69 94.15 80.35 83.45 87.49 C 74.82 93.13 64.05 96.58 53.76 94.13 C 48.63 92.78 43.49 89.73 41.06 84.86 C 41.09 82.30 44.05 81.03 45.39 79.08 C 48.04 84.76 53.79 88.54 59.99 89.10 C 70.33 90.28 80.19 85.17 87.86 78.65 C 87.81 70.15 87.91 61.65 87.79 53.15 C 83.24 58.14 78.95 63.34 74.45 68.36 C 69.82 63.43 65.59 58.13 61.00 53.16 C 61.02 61.44 60.97 69.71 60.98 77.98 C 58.94 77.97 56.89 77.97 54.85 77.96 C 54.85 67.21 54.84 56.46 54.84 45.71 C 50.51 50.50 46.86 56.05 45.13 62.33 C 44.29 66.23 40.73 68.52 38.09 71.18 C 38.94 60.23 44.88 50.21 52.57 42.60 M 56.50 44.10 C 58.20 44.11 59.91 44.10 61.61 44.07 C 65.91 48.96 70.16 53.89 74.40 58.83 C 78.73 53.92 82.80 48.78 87.35 44.08 C 89.57 44.12 91.78 44.13 94.00 44.13 C 94.03 53.37 93.94 62.62 94.04 71.86 C 99.69 64.35 103.61 54.64 101.44 45.15 C 99.92 38.02 93.32 32.57 86.10 32.07 C 75.05 31.19 64.30 36.59 56.50 44.10 Z" />
<path fill="#e1395a" opacity="1.00" d=" M 115.01 48.25 C 116.40 46.24 118.31 44.20 120.95 44.16 C 128.33 44.07 135.72 44.13 143.10 44.13 C 146.70 44.06 149.91 47.35 149.84 50.93 C 149.92 59.94 149.78 68.96 149.84 77.97 C 147.61 77.97 145.38 77.97 143.16 77.97 C 143.18 74.26 143.17 70.55 143.15 66.85 C 135.82 66.86 128.49 66.78 121.16 66.89 C 121.15 70.58 121.15 74.28 121.15 77.97 C 119.05 77.97 116.95 77.97 114.85 77.97 C 114.95 68.06 114.63 58.15 115.01 48.25 M 121.25 50.27 C 121.13 53.65 121.15 57.03 121.15 60.42 C 128.47 60.59 135.79 60.46 143.11 60.49 C 143.17 57.05 143.18 53.60 143.03 50.15 C 135.77 50.22 128.51 50.03 121.25 50.27 Z" />
<path fill="#e1395a" opacity="1.00" d=" M 155.71 49.08 C 156.24 45.81 159.81 43.88 162.93 44.11 C 170.27 44.21 177.63 43.96 184.97 44.23 C 189.22 44.83 191.01 49.36 190.47 53.19 C 188.32 53.17 186.17 53.16 184.02 53.15 C 184.00 52.41 183.95 50.93 183.92 50.18 C 176.62 50.13 169.31 50.18 162.01 50.15 C 162.00 52.77 162.00 55.38 162.00 58.00 C 169.35 58.02 176.70 57.96 184.06 58.01 C 187.33 57.96 190.21 60.88 190.35 64.13 C 190.61 67.05 190.73 70.06 190.13 72.95 C 189.58 76.18 186.19 78.32 183.03 77.98 C 175.65 77.90 168.26 78.08 160.89 77.90 C 156.77 77.22 154.90 72.82 155.44 69.02 C 157.61 69.01 159.79 69.01 161.96 69.00 C 161.98 69.72 162.02 71.15 162.04 71.87 C 169.36 71.83 176.68 71.85 184.00 71.85 C 184.01 69.28 184.01 66.72 184.00 64.15 C 176.63 64.11 169.27 64.24 161.91 64.10 C 158.64 64.18 155.50 61.29 155.53 57.97 C 155.43 55.01 155.31 52.02 155.71 49.08 Z" />
<path fill="#e1395a" opacity="1.00" d=" M 38.37 76.46 C 39.92 74.40 41.91 72.73 43.80 70.99 C 43.93 72.36 44.07 73.73 44.20 75.11 C 42.47 76.92 40.71 78.69 38.93 80.45 C 38.69 79.13 38.31 77.81 38.37 76.46 Z" />
</g>
<g id="#4782c6ff">
<path fill="#4782c6" opacity="1.00" d=" M 197.03 44.15 C 207.82 44.06 218.62 44.14 229.42 44.11 C 229.51 46.41 229.53 48.70 229.53 51.00 C 221.02 51.00 212.51 51.00 204.00 51.00 C 204.00 53.33 204.00 55.67 204.00 58.00 C 210.84 58.00 217.68 58.00 224.51 58.00 C 224.50 60.28 224.48 62.55 224.41 64.83 C 217.60 64.83 210.79 64.82 203.98 64.83 C 203.96 69.38 203.94 73.94 203.94 78.49 C 201.65 78.47 199.36 78.46 197.07 78.43 C 197.04 67.00 196.94 55.58 197.03 44.15 Z" />
<path fill="#4782c6" opacity="1.00" d=" M 233.01 50.93 C 233.00 47.29 236.34 44.09 239.96 44.14 C 247.00 44.07 254.04 44.11 261.08 44.12 C 264.71 44.05 268.47 47.15 268.14 50.98 C 268.18 60.14 268.16 69.31 268.12 78.47 C 265.81 78.47 263.51 78.46 261.21 78.41 C 261.21 74.65 261.21 70.90 261.13 67.15 C 254.08 67.15 247.02 67.15 239.97 67.15 C 239.96 70.93 239.94 74.71 239.94 78.49 C 237.65 78.47 235.36 78.46 233.07 78.43 C 233.05 69.26 232.96 60.09 233.01 50.93 M 240.00 51.00 C 240.00 54.17 240.00 57.33 240.00 60.50 C 247.04 60.50 254.08 60.51 261.13 60.50 C 261.16 57.33 261.15 54.17 261.13 51.00 C 254.08 51.00 247.04 51.00 240.00 51.00 Z" />
<path fill="#4782c6" opacity="1.00" d=" M 273.97 48.33 C 275.78 45.15 279.44 43.56 283.02 44.09 C 289.65 44.23 296.28 43.93 302.91 44.22 C 307.58 44.75 309.78 49.76 308.89 54.00 C 306.59 54.00 304.29 54.00 302.00 54.00 C 302.00 53.25 302.00 51.75 302.00 51.00 C 294.95 51.00 287.91 51.00 280.87 51.00 C 280.86 53.33 280.85 55.66 280.85 58.00 C 287.92 58.02 295.00 57.98 302.08 58.00 C 305.68 57.80 309.19 61.31 308.84 64.94 C 308.84 67.64 308.91 70.34 308.73 73.04 C 308.31 76.29 305.08 78.49 301.93 78.44 C 295.28 78.53 288.63 78.42 281.98 78.48 C 279.47 78.62 276.73 77.96 275.16 75.84 C 273.41 73.94 273.96 71.19 273.81 68.84 C 276.13 68.84 278.46 68.85 280.79 68.93 C 280.81 69.66 280.86 71.12 280.88 71.85 C 287.91 71.84 294.94 71.89 301.97 71.82 C 302.03 69.49 302.03 67.16 302.03 64.83 C 295.01 64.80 287.99 64.86 280.96 64.82 C 277.98 64.87 274.75 62.96 274.02 59.96 C 273.61 56.10 273.88 52.20 273.97 48.33 Z" />
<path fill="#4782c6" opacity="1.00" d=" M 313.19 44.19 C 324.89 44.01 336.60 44.19 348.30 44.09 C 348.54 46.39 348.56 48.70 348.45 51.00 C 343.68 51.00 338.92 51.00 334.15 51.01 C 334.14 60.16 334.18 69.32 334.12 78.48 C 331.81 78.48 329.50 78.47 327.20 78.32 C 327.19 69.22 327.16 60.11 327.13 51.00 C 322.45 51.00 317.78 51.01 313.11 51.00 C 313.11 48.73 313.13 46.45 313.19 44.19 Z" />
</g>
</svg>
