<?xml version="1.0" encoding="UTF-8" standalone="no"?>
<!-- Generator: Adobe Illustrator 15.1.0, SVG Export Plug-In . SVG Version: 6.00 Build 0)  -->

<svg
   xmlns:dc="http://purl.org/dc/elements/1.1/"
   xmlns:cc="http://creativecommons.org/ns#"
   xmlns:rdf="http://www.w3.org/1999/02/22-rdf-syntax-ns#"
   xmlns:svg="http://www.w3.org/2000/svg"
   xmlns="http://www.w3.org/2000/svg"
   xmlns:sodipodi="http://sodipodi.sourceforge.net/DTD/sodipodi-0.dtd"
   xmlns:inkscape="http://www.inkscape.org/namespaces/inkscape"
   version="1.1"
   id="Livello_1"
   x="0px"
   y="0px"
   width="841.89px"
   height="595.28px"
   viewBox="0 0 841.89 595.28"
   enable-background="new 0 0 841.89 595.28"
   xml:space="preserve"
   inkscape:version="0.48.4 r9939"
   sodipodi:docname="skeddoc-logo.svg"
   inkscape:export-filename="I:\Dropbox\Render Web\juanpablotinte\imagenes fuentes\skeddoc-logo.png"
   inkscape:export-xdpi="169.72694"
   inkscape:export-ydpi="169.72694"><metadata
   id="metadata3237"><rdf:RDF><cc:Work
       rdf:about=""><dc:format>image/svg+xml</dc:format><dc:type
         rdf:resource="http://purl.org/dc/dcmitype/StillImage" /><dc:title></dc:title></cc:Work></rdf:RDF></metadata><defs
   id="defs3235" /><sodipodi:namedview
   pagecolor="#ffffff"
   bordercolor="#666666"
   borderopacity="1"
   objecttolerance="10"
   gridtolerance="10"
   guidetolerance="10"
   inkscape:pageopacity="0"
   inkscape:pageshadow="2"
   inkscape:window-width="1280"
   inkscape:window-height="977"
   id="namedview3233"
   showgrid="false"
   inkscape:zoom="3.1716166"
   inkscape:cx="123.91968"
   inkscape:cy="498.91397"
   inkscape:window-x="-4"
   inkscape:window-y="-4"
   inkscape:window-maximized="1"
   inkscape:current-layer="Livello_1" />
<g
   id="g3175"
   inkscape:export-xdpi="160.11069"
   inkscape:export-ydpi="160.11069">
	<g
   id="g3177">
		<path
   d="M35.598,29.081c7.184,1.627,9.003,5.89,9.003,9.913c0,6.226-4.692,10.871-14.175,10.871    c-9.961,0-14.415-4.979-14.415-8.716c0-1.916,1.389-3.257,3.305-3.257c4.261,0,3.16,6.226,11.109,6.226    c4.071,0,6.322-2.25,6.322-4.549c0-1.389-0.671-2.921-3.354-3.592l-8.857-2.25c-7.136-1.82-8.43-5.747-8.43-9.434    c0-7.663,7.088-10.536,13.745-10.536c6.13,0,13.36,3.448,13.36,8.045c0,1.963-1.675,3.113-3.591,3.113    c-3.639,0-2.969-5.124-10.296-5.124c-3.64,0-5.651,1.676-5.651,4.071c0,2.395,2.873,3.16,5.363,3.734L35.598,29.081z"
   id="path3179"
   fill="#00AEEF" />
		<path
   d="M47.092,17.443c0-2.298,1.388-3.496,3.496-3.496c2.107,0,3.496,1.197,3.496,3.496v15.899l7.757-8.619    c0.718-0.767,1.628-1.341,2.682-1.341c1.58,0,3.304,1.389,3.304,3.16c0,1.246-0.431,1.629-1.053,2.299l-5.172,5.412l7.278,9.769    c0.239,0.336,0.718,1.102,0.718,2.251c0,1.771-1.436,3.401-3.304,3.401c-1.723,0-2.634-0.862-3.16-1.629l-6.609-9.337    l-2.442,2.155v5.316c0,2.298-1.389,3.496-3.496,3.496c-2.108,0-3.496-1.198-3.496-3.496V17.443z"
   id="path3181"
   fill="#00AEEF" />
		<path
   d="M95.633,34.826c0-5.746-4.597-11.444-12.643-11.444c-8.284,0-13.217,5.459-13.217,13.601    c0,6.082,3.686,12.69,13.456,12.69c4.214,0,10.966-1.964,10.966-6.178c0-1.292-1.197-2.729-2.874-2.729    c-2.825,0-2.825,3.447-8.092,3.447c-2.721,0-4.688-1.202-5.696-3.097c-0.235-0.337-0.438-0.773-0.577-1.358    c-1.144-5.861,1.085-8.971,1.085-8.971l0.023,0.003c0.995-1.692,2.585-2.524,5.068-2.524c3.113,0,5.507,2.347,5.891,5.556    l-1.997-0.09l0,0l-5.24-0.07c-1.32,0-2.006,0.847-2.006,2.129c0,1.284,0.686,2.054,2.006,2.054h5.438h5.342    C94.914,37.845,95.633,37.222,95.633,34.826z"
   id="path3183"
   fill="#00AEEF" />
		<path
   d="M118.323,13.947c-2.108,0-3.498,1.197-3.498,3.496v3.621v3.081c-0.383-0.133-0.783-0.249-1.196-0.351    c-0.304-0.096-0.685-0.177-1.158-0.237c-0.027-0.004-0.051-0.006-0.079-0.009c-0.432-0.064-0.876-0.108-1.331-0.134    c-3.992-0.322-6.075,0.317-6.075,0.317l0.018,0.008c-5.414,1.4-7.944,6.845-7.944,12.621c0,0.116,0.01,0.221,0.012,0.335    c-0.002,0.113-0.012,0.221-0.012,0.335c0,2.857,0.626,5.401,1.894,7.451c1.744,3.04,4.528,4.704,7.635,5.092v0.011    c0,0,3.81,0.573,6.865-0.333c0.02-0.006,0.032-0.012,0.051-0.018c0.906-0.225,1.715-0.533,2.44-0.896    c0.5,0.876,1.415,1.336,2.712,1.336c2.155,0,3.162-1.15,3.162-3.305v-1.439v-1.699v-1.872c0-2.299-1.389-3.496-3.497-3.496    c-0.758,0-1.419,0.16-1.961,0.467c-0.017,0.004-0.034,0.016-0.052,0.023c-0.014,0.008-0.027,0.017-0.042,0.025    c-0.035,0.022-0.071,0.036-0.108,0.068c-0.031,0.029-0.054,0.052-0.083,0.079c-0.413,0.302-0.738,0.705-0.95,1.215    c-0.004-0.006-0.011-0.017-0.011-0.017s-0.017,0.049-0.041,0.119v0.001c-0.119,0.348-0.512,1.442-1,2.22    c-0.096,0.132-0.195,0.261-0.297,0.391c-0.367,0.413-0.721,0.737-0.888,0.88c-0.673,0.515-1.569,0.879-2.948,0.879    c-1.711,0-3.067-0.567-4.046-1.58c-0.415-0.467-0.909-1.228-1.28-2.418c-0.353-1.023-0.538-2.183-0.557-3.416    c0.08-6.13,3.235-7.958,5.93-7.958c2.67,0,3.584,1.161,4.349,2.25c0.031,0.049,0.242,0.381,0.588,0.797    c0.048,0.059,0.097,0.117,0.148,0.172c0.12,0.137,0.254,0.279,0.4,0.42c0.095,0.103,0.183,0.193,0.263,0.271    c0.036,0.035,0.07,0.069,0.108,0.103c0.342,0.313,0.524,0.396,0.524,0.396l-0.008-0.022c0.181,0.102,0.374,0.188,0.581,0.256    c0.239,0.093,0.489,0.157,0.744,0.17c0.022,0,0.041-0.004,0.063-0.004c0.186,0.021,0.375,0.043,0.574,0.043    c1.917,0,3.226-1,3.45-2.909c0.016-0.089,0.035-0.177,0.046-0.265v-0.322v-9.483v-3.272    C121.82,15.145,120.431,13.947,118.323,13.947z"
   id="path3185"
   fill="#00AEEF" />
	</g>
	<g
   id="g3187">
		<path
   d="M192.785,23.382c5.841,0,10.198,3.304,10.198,6.561c0,2.011-1.483,3.017-3.256,3.017    c-3.305,0-2.106-4.119-7.135-4.119c-2.73,0-5.938,1.867-5.938,8.189c0,4.358,2.06,7.183,5.889,7.183    c4.886,0,3.832-4.502,7.519-4.502c1.773,0,2.921,1.293,2.921,2.682c0,3.065-3.448,7.28-10.629,7.28    c-8.622,0-12.69-5.315-12.69-12.643C179.664,28.985,184.212,23.382,192.785,23.382z"
   id="path3189"
   fill="#55C3BF" />
		<path
   d="M145.627,13.947c-2.108,0-3.497,1.197-3.497,3.496v3.621v3.081c-0.383-0.133-0.783-0.249-1.196-0.351    c-0.304-0.096-0.685-0.177-1.158-0.237c-0.026-0.004-0.051-0.006-0.078-0.009c-0.432-0.064-0.876-0.108-1.331-0.134    c-3.994-0.322-6.076,0.317-6.076,0.317l0.018,0.008c-5.413,1.4-7.944,6.845-7.944,12.621c0,0.116,0.011,0.221,0.013,0.335    c-0.002,0.113-0.013,0.221-0.013,0.335c0,2.857,0.629,5.401,1.895,7.451c1.744,3.04,4.528,4.704,7.634,5.092l0.002,0.011    c0,0,3.809,0.573,6.865-0.333c0.02-0.006,0.032-0.012,0.05-0.018c0.906-0.225,1.715-0.533,2.439-0.896    c0.501,0.876,1.416,1.336,2.713,1.336c2.155,0,3.163-1.15,3.163-3.305v-1.439v-1.699v-1.872c0-2.299-1.389-3.496-3.498-3.496    c-0.758,0-1.419,0.16-1.961,0.467c-0.017,0.004-0.034,0.016-0.052,0.023c-0.013,0.008-0.027,0.017-0.042,0.025    c-0.035,0.022-0.071,0.036-0.108,0.068c-0.031,0.029-0.054,0.052-0.083,0.079c-0.413,0.302-0.738,0.705-0.95,1.215    c-0.004-0.006-0.011-0.017-0.011-0.017s-0.017,0.049-0.04,0.119v0.001c-0.118,0.348-0.513,1.442-1,2.22    c-0.096,0.132-0.195,0.261-0.297,0.391c-0.366,0.413-0.721,0.737-0.888,0.88c-0.673,0.515-1.569,0.879-2.948,0.879    c-1.712,0-3.067-0.567-4.045-1.58c-0.417-0.467-0.91-1.228-1.282-2.418c-0.353-1.023-0.537-2.183-0.557-3.416    c0.081-6.13,3.236-7.958,5.93-7.958c2.671,0,3.584,1.161,4.35,2.25c0.031,0.049,0.242,0.381,0.587,0.797    c0.048,0.059,0.097,0.117,0.148,0.172c0.12,0.137,0.254,0.279,0.399,0.42c0.095,0.103,0.183,0.193,0.264,0.271    c0.036,0.035,0.07,0.069,0.107,0.103c0.343,0.313,0.525,0.396,0.525,0.396l-0.008-0.022c0.181,0.102,0.374,0.188,0.58,0.256    c0.24,0.093,0.489,0.157,0.745,0.17c0.022,0,0.041-0.004,0.063-0.004c0.186,0.021,0.374,0.043,0.574,0.043    c1.917,0,3.227-1,3.451-2.909c0.016-0.089,0.035-0.177,0.046-0.265v-0.322v-9.483v-3.272    C149.125,15.145,147.736,13.947,145.627,13.947z"
   id="path3191"
   fill="#55C3BF" />
		<g
   id="g3193">
			<path
   d="M18.292,59.935c-1.035,0-1.821-0.219-2.492-0.9l0.862-0.862c0.432,0.431,1.017,0.575,1.648,0.575     c0.786,0,1.208-0.298,1.208-0.843c0-0.24-0.067-0.441-0.211-0.575c-0.134-0.125-0.288-0.192-0.604-0.24l-0.824-0.115     c-0.585-0.086-1.016-0.269-1.323-0.565c-0.326-0.327-0.489-0.767-0.489-1.341c0-1.216,0.902-2.07,2.377-2.07     c0.938,0,1.619,0.23,2.203,0.795l-0.843,0.833c-0.431-0.411-0.95-0.47-1.399-0.47c-0.709,0-1.054,0.394-1.054,0.863     c0,0.172,0.058,0.354,0.2,0.488c0.134,0.125,0.355,0.229,0.633,0.269l0.805,0.114c0.624,0.086,1.015,0.259,1.303,0.527     c0.364,0.345,0.527,0.843,0.527,1.446C20.821,59.188,19.719,59.935,18.292,59.935z"
   id="path3195"
   fill="#55C3BF" />
			<path
   d="M25.501,59.935c-0.728,0-1.341-0.249-1.84-0.747c-0.296-0.297-0.479-0.643-0.555-1.025     c-0.077-0.383-0.114-0.949-0.114-1.696c0-0.748,0.037-1.313,0.114-1.697c0.077-0.391,0.259-0.728,0.555-1.025     c0.499-0.498,1.112-0.747,1.84-0.747c1.313,0,2.28,0.767,2.51,2.156h-1.351c-0.145-0.585-0.507-0.968-1.15-0.968     c-0.365,0-0.651,0.116-0.852,0.354c-0.278,0.297-0.336,0.604-0.336,1.926s0.058,1.628,0.336,1.925     c0.201,0.239,0.487,0.355,0.852,0.355c0.643,0,1.005-0.384,1.15-0.968h1.351C27.782,59.169,26.804,59.935,25.501,59.935z"
   id="path3197"
   fill="#55C3BF" />
			<path
   d="M33.948,59.878v-2.856h-2.309v2.856h-1.332v-6.821h1.332v2.788h2.309v-2.788h1.332v6.821H33.948z"
   id="path3199"
   fill="#55C3BF" />
			<path
   d="M38.015,59.878v-6.821h4.493v1.187h-3.162v1.601h2.693v1.188h-2.693v1.658h3.162v1.188H38.015z"
   id="path3201"
   fill="#55C3BF" />
			<path
   d="M49.22,59.227c-0.45,0.45-1.092,0.652-1.801,0.652h-2.462v-6.821h2.462c0.709,0,1.352,0.2,1.801,0.651     c0.767,0.767,0.689,1.705,0.689,2.73C49.909,57.464,49.987,58.46,49.22,59.227z M48.29,54.667     c-0.229-0.277-0.536-0.422-0.996-0.422h-1.006v4.446h1.006c0.459,0,0.767-0.145,0.996-0.421c0.249-0.306,0.289-0.795,0.289-1.831     C48.579,55.404,48.539,54.973,48.29,54.667z"
   id="path3203"
   fill="#55C3BF" />
			<path
   d="M54.82,59.935c-1.398,0-2.51-0.948-2.51-2.394v-4.484h1.333v4.435c0,0.786,0.459,1.256,1.177,1.256     c0.719,0,1.189-0.47,1.189-1.256v-4.435h1.321v4.484C57.33,58.987,56.219,59.935,54.82,59.935z"
   id="path3205"
   fill="#55C3BF" />
			<path
   d="M59.96,59.878v-6.821h1.333v5.633h3.094v1.188H59.96z"
   id="path3207"
   fill="#55C3BF" />
			<path
   d="M66.615,59.878v-6.821h4.493v1.187h-3.161v1.601h2.692v1.188h-2.692v1.658h3.161v1.188H66.615z"
   id="path3209"
   fill="#55C3BF" />
			<path
   d="M79.532,57.081v2.798H78.21v-2.798l-2.049-4.023h1.446l1.274,2.75l1.255-2.75h1.448L79.532,57.081z"
   id="path3211"
   fill="#55C3BF" />
			<path
   d="M87.586,59.188c-0.479,0.479-1.063,0.747-1.839,0.747c-0.775,0-1.369-0.268-1.849-0.747     c-0.689-0.689-0.67-1.542-0.67-2.721c0-1.179-0.02-2.032,0.67-2.722c0.48-0.479,1.074-0.747,1.849-0.747     c0.776,0,1.36,0.268,1.839,0.747c0.69,0.69,0.68,1.543,0.68,2.722C88.266,57.646,88.276,58.499,87.586,59.188z M86.599,54.552     c-0.191-0.221-0.488-0.364-0.853-0.364s-0.67,0.143-0.861,0.364c-0.259,0.287-0.327,0.604-0.327,1.916s0.067,1.628,0.327,1.916     c0.191,0.221,0.497,0.365,0.861,0.365s0.662-0.144,0.853-0.365c0.258-0.288,0.335-0.603,0.335-1.916S86.857,54.839,86.599,54.552     z"
   id="path3213"
   fill="#55C3BF" />
			<path
   d="M93.178,59.935c-1.399,0-2.511-0.948-2.511-2.394v-4.484h1.333v4.435c0,0.786,0.459,1.256,1.179,1.256     c0.717,0,1.188-0.47,1.188-1.256v-4.435h1.322v4.484C95.688,58.987,94.576,59.935,93.178,59.935z"
   id="path3215"
   fill="#55C3BF" />
			<path
   d="M101.938,59.878l-1.332-2.721h-0.958v2.721h-1.332v-6.821h2.674c1.389,0,2.213,0.948,2.213,2.088     c0,0.958-0.585,1.551-1.246,1.791l1.523,2.942H101.938z M100.905,54.244h-1.256v1.802h1.256c0.584,0,0.967-0.374,0.967-0.901     S101.489,54.244,100.905,54.244z"
   id="path3217"
   fill="#55C3BF" />
			<path
   d="M113.361,59.227c-0.449,0.45-1.092,0.652-1.801,0.652H109.1v-6.821h2.461c0.709,0,1.352,0.2,1.801,0.651     c0.768,0.767,0.69,1.705,0.69,2.73C114.051,57.464,114.129,58.46,113.361,59.227z M112.432,54.667     c-0.229-0.277-0.537-0.422-0.996-0.422h-1.006v4.446h1.006c0.459,0,0.768-0.145,0.996-0.421c0.249-0.306,0.288-0.795,0.288-1.831     C112.72,55.404,112.681,54.973,112.432,54.667z"
   id="path3219"
   fill="#55C3BF" />
			<path
   d="M120.687,59.188c-0.479,0.479-1.063,0.747-1.84,0.747c-0.775,0-1.371-0.268-1.849-0.747     c-0.69-0.689-0.672-1.542-0.672-2.721c0-1.179-0.019-2.032,0.672-2.722c0.478-0.479,1.073-0.747,1.849-0.747     c0.777,0,1.36,0.268,1.84,0.747c0.689,0.69,0.68,1.543,0.68,2.722C121.367,57.646,121.376,58.499,120.687,59.188z      M119.701,54.552c-0.192-0.221-0.489-0.364-0.854-0.364c-0.364,0-0.671,0.143-0.862,0.364c-0.259,0.287-0.326,0.604-0.326,1.916     s0.067,1.628,0.326,1.916c0.191,0.221,0.499,0.365,0.862,0.365c0.364,0,0.661-0.144,0.854-0.365     c0.258-0.288,0.334-0.603,0.334-1.916S119.959,54.839,119.701,54.552z"
   id="path3221"
   fill="#55C3BF" />
			<path
   d="M126.153,59.935c-0.729,0-1.342-0.249-1.839-0.747c-0.297-0.297-0.479-0.643-0.556-1.025     c-0.077-0.383-0.114-0.949-0.114-1.696c0-0.748,0.038-1.313,0.114-1.697c0.077-0.391,0.259-0.728,0.556-1.025     c0.498-0.498,1.111-0.747,1.839-0.747c1.313,0,2.28,0.767,2.51,2.156h-1.351c-0.143-0.585-0.507-0.968-1.149-0.968     c-0.364,0-0.653,0.116-0.854,0.354c-0.278,0.297-0.334,0.604-0.334,1.926s0.057,1.628,0.334,1.925     c0.201,0.239,0.489,0.355,0.854,0.355c0.642,0,1.006-0.384,1.149-0.968h1.351C128.433,59.169,127.456,59.935,126.153,59.935z"
   id="path3223"
   fill="#55C3BF" />
			<path
   d="M133.372,54.244v5.634h-1.331v-5.634h-1.783v-1.187h4.896v1.187H133.372z"
   id="path3225"
   fill="#55C3BF" />
			<path
   d="M141.32,59.188c-0.479,0.479-1.063,0.747-1.839,0.747c-0.777,0-1.371-0.268-1.85-0.747     c-0.689-0.689-0.67-1.542-0.67-2.721c0-1.179-0.019-2.032,0.67-2.722c0.479-0.479,1.073-0.747,1.85-0.747     c0.776,0,1.36,0.268,1.839,0.747c0.69,0.69,0.68,1.543,0.68,2.722C142,57.646,142.01,58.499,141.32,59.188z M140.334,54.552     c-0.192-0.221-0.489-0.364-0.853-0.364c-0.365,0-0.671,0.143-0.863,0.364c-0.259,0.287-0.326,0.604-0.326,1.916     s0.067,1.628,0.326,1.916c0.192,0.221,0.498,0.365,0.863,0.365c0.363,0,0.66-0.144,0.853-0.365     c0.258-0.288,0.334-0.603,0.334-1.916S140.592,54.839,140.334,54.552z"
   id="path3227"
   fill="#55C3BF" />
			<path
   d="M148.128,59.878l-1.331-2.721h-0.959v2.721h-1.331v-6.821h2.673c1.389,0,2.213,0.948,2.213,2.088     c0,0.958-0.584,1.551-1.245,1.791l1.523,2.942H148.128z M147.094,54.244h-1.256v1.802h1.256c0.584,0,0.967-0.374,0.967-0.901     S147.678,54.244,147.094,54.244z"
   id="path3229"
   fill="#55C3BF" />
		</g>
		<path
   d="M184.983,57.704c-4.188-2.672-11.253-2.795-18.908-2.72c-0.027-0.633-0.037-1.245-0.037-1.826v-3.527    c6.622-0.688,11.786-6.285,11.786-13.088c0-7.27-5.893-13.162-13.162-13.162c-7.269,0-13.162,5.892-13.162,13.162    c0,6.784,5.135,12.366,11.729,13.08v3.536c0,0.594,0.009,1.216,0.036,1.859c-1.188,0.013-10.849,0-10.849,0v2.805    c0,0,9.813,0.014,11.075,0c0.575,4.598,2.329,9.664,7.355,13.008c2.895,1.927,6.064,2.946,9.017,2.946    c0.909,0,1.799-0.097,2.654-0.294c2.59-0.596,4.69-2.07,5.914-4.149C190.412,65.961,189.665,60.691,184.983,57.704z     M158.002,36.542c0,2.624,1.521,4.887,3.728,5.972l0.555,3.68c-4.341-1.07-7.574-4.986-7.574-9.652    c0-5.487,4.464-9.952,9.952-9.952s9.952,4.464,9.952,9.952c0,4.666-3.233,8.582-7.575,9.652l0.558-3.681    c2.205-1.085,3.725-3.348,3.725-5.971c0-3.679-2.982-6.661-6.66-6.661C160.984,29.882,158.002,32.863,158.002,36.542z     M164.665,38.189c-0.909,0-1.648-0.739-1.648-1.646c0-0.907,0.739-1.647,1.648-1.647c0.911,0,1.645,0.74,1.645,1.647    C166.309,37.45,165.575,38.189,164.665,38.189z M186.01,67.907c-0.828,1.409-2.292,2.416-4.123,2.837    c-2.879,0.666-6.337-0.159-9.485-2.254c-4.014-2.671-5.53-6.817-6.075-10.7c6.896-0.065,13.675,0.064,17.147,2.28    C186.683,62.119,187.289,65.733,186.01,67.907z"
   id="path3231"
   fill="#55C3BF" />
	</g>
</g>
</svg>